HIERARCHY
ROOT Hips
{
  OFFSET 0 0 0
  CHANNELS 6 Xposition Yposition Zposition Zrotation Yrotation Xrotation
  JOINT LeftThigh
  {
    OFFSET 8.409438 0 -5.917753
    CHANNELS 3 Zrotation Yrotation Xrotation
    JOINT LeftLeg
    {
      OFFSET 0 0 -42.358652
      CHANNELS 3 Zrotation Yrotation Xrotation
      JOINT LeftFoot
      {
        OFFSET 0 0 -39.357303
        CHANNELS 3 Zrotation Yrotation Xrotation
      }
    }
  }
  JOINT RightThigh
  {
    OFFSET -8.409438 0 -5.917753
    CHANNELS 3 Zrotation Yrotation Xrotation
    JOINT RightLeg
    {
      OFFSET 0 0 -42.358652
      CHANNELS 3 Zrotation Yrotation Xrotation
      JOINT RightFoot
      {
        OFFSET 0 0 -39.357303
        CHANNELS 3 Zrotation Yrotation Xrotation
      }
    }
  }
  JOINT SpineLow
  {
    OFFSET 0 0 4.719101
    CHANNELS 3 Zrotation Yrotation Xrotation
    JOINT SpineMid
    {
      OFFSET 0 0 12.899191
      CHANNELS 3 Zrotation Yrotation Xrotation
      JOINT Chest
      {
        OFFSET 0 0 12.899191
        CHANNELS 3 Zrotation Yrotation Xrotation
        JOINT LeftShoulder
        {
          OFFSET 7.550562 1.41573 9.438202
          CHANNELS 3 Zrotation Yrotation Xrotation
          JOINT LeftArm
          {
            OFFSET 9.155056 0 4.247191
            CHANNELS 3 Zrotation Yrotation Xrotation
            JOINT LeftForearm
            {
              OFFSET 0 0 25.771955
              CHANNELS 3 Zrotation Yrotation Xrotation
              JOINT LeftHand
              {
                OFFSET 0 0 25.197169
                CHANNELS 3 Zrotation Yrotation Xrotation
              }
            }
          }
        }
        JOINT RightShoulder
        {
          OFFSET -7.550562 1.41573 9.438202
          CHANNELS 3 Zrotation Yrotation Xrotation
          JOINT RightArm
          {
            OFFSET -9.155056 0 4.247191
            CHANNELS 3 Zrotation Yrotation Xrotation
            JOINT RightForearm
            {
              OFFSET 0 0 -25.771955
              CHANNELS 3 Zrotation Yrotation Xrotation
              JOINT RightHand
              {
                OFFSET 0 0 -25.197169
                CHANNELS 3 Zrotation Yrotation Xrotation
              }
            }
          }
        }
        JOINT Neck
        {
          OFFSET 0 0 15.101124
          CHANNELS 3 Zrotation Yrotation Xrotation
          JOINT Head
          {
            OFFSET 0 0 11.325843
            CHANNELS 3 Zrotation Yrotation Xrotation
            End Site
            {
              OFFSET 0 0 14.157303
            }
          }
        }
      }
    }
  }
}
MOTION
Frames: 17
Frame Time: 0.0
0.0  93.25843  0.0  0.283254  30.58016  -92.332301  6.52396  -15.213576  23.851049  -6.563591  0.214606  10.66326  4.643737  1.79758  -1.657429  -28.638029  -12.123163  -38.361648  14.571861  17.725615  54.049964  11.096164  3.975014  1.880418  0.681746  -0.32191  1.727585  1.839514  -0.927993  4.712958  1.839514  -0.927993  4.712958  -18.743929  25.93095  10.204065  138.436393  38.686367  -164.679573  -8.608405  4.711556  83.118667  62.12419  -32.416432  -1.051639  2.136319  -12.497402  14.035561  39.973012  74.409118  -13.343261  -36.507076  -37.039812  -81.930817  51.421216  5.796839  -12.374313  -16.006223  -2.231306  3.635493  -11.990392  -1.770229  2.669965  
0.0  93.25843  0.0  1.21175  31.118401  -91.844988  4.37852  -14.489452  24.188791  -6.600085  1.55151  10.002041  5.448481  1.658501  -1.01826  -30.144992  -11.596495  -39.279848  15.032923  17.462347  54.381233  11.233932  3.919674  1.896626  0.791637  -0.168654  1.823911  2.149772  -0.520313  4.979437  2.149773  -0.520313  4.979437  -18.755691  25.740576  10.154198  138.341362  39.299078  -164.55375  -8.059564  4.308567  82.898764  62.461302  -31.701892  -1.037913  1.860734  -12.333893  14.156968  35.957104  73.485517  -17.141353  -36.463662  -36.917552  -81.705826  51.196468  5.807384  -12.143274  -16.750259  -2.54336  3.60192  -12.546171  -2.008132  2.633569  
0.0  93.25843  0.0  2.05576  31.397611  -91.422166  2.843356  -13.512567  24.190215  -6.863561  2.101701  10.340393  5.82215  1.838426  -1.282433  -31.606965  -11.162032  -40.13177  15.576088  17.247056  54.656865  11.2989  3.797017  1.880441  0.847943  -0.034974  1.847188  2.313548  -0.160251  5.047171  2.313548  -0.160251  5.047171  -19.973452  25.481955  9.73792  140.232596  39.564404  -164.041497  -7.666327  4.335077  82.673813  62.437175  -31.344391  -1.17775  1.894882  -11.898386  14.479251  33.74575  71.972115  -19.189755  -36.104087  -36.965582  -81.908032  50.945486  5.954592  -11.92733  -17.139445  -2.588932  3.776806  -12.83699  -2.049645  2.762022  
0.0  93.25843  0.0  2.784326  31.654898  -90.936696  2.837578  -12.279333  23.815684  -7.531648  1.76621  10.619729  6.129119  1.712245  -1.302611  -32.944132  -10.863314  -41.014578  15.9642  17.025347  54.88699  11.438216  3.709632  1.934731  0.93671  0.112319  1.844037  2.567262  0.235372  5.043992  2.567262  0.235372  5.043992  -19.621743  25.139596  9.99511  139.928373  39.978504  -164.178453  -7.838475  4.800994  82.302998  62.462687  -31.231672  -1.1585  1.81796  -11.750712  14.520939  32.920503  70.175845  -19.690627  -35.509192  -37.233212  -82.591227  50.58141  6.094767  -11.90286  -17.546357  -2.644081  3.957318  -13.140979  -2.098858  2.894302  
0.0  93.25843  0.0  3.44265  31.943754  -90.311059  3.251646  -10.656427  23.503168  -7.999669  0.808062  10.543144  7.004539  1.543885  -1.071723  -34.227909  -10.671564  -42.057422  16.229228  16.782709  55.110708  11.5583  3.607124  1.997179  0.797596  0.313691  1.730745  2.201407  0.799774  4.740786  2.201407  0.799774  4.740787  -19.344192  24.33121  10.002894  140.997227  39.980546  -164.179142  -8.432067  5.38305  82.148031  62.60833  -31.224531  -1.365885  3.125424  -12.087041  14.874912  28.453224  68.987178  -21.825354  -32.789189  -39.573854  -84.578302  50.290324  6.2138  -11.932748  -17.0665  -2.650741  4.433666  -12.779175  -2.113978  3.253573  
0.0  93.25843  0.0  4.038985  32.306812  -89.5085  2.857184  -9.252228  22.419442  -7.253088  0.045467  11.166518  6.995224  1.685124  -1.125077  -35.448696  -10.619878  -43.245824  16.357205  16.600134  55.320105  11.652912  3.52838  2.094162  0.877837  0.423818  1.664606  2.427542  1.097259  4.565116  2.427543  1.097259  4.565116  -19.761379  24.048318  9.825663  140.381931  40.46161  -164.931489  -9.20993  5.430934  82.243402  62.544878  -31.204788  -1.862931  2.962557  -12.288888  14.642216  29.178421  67.656697  -20.831735  -32.137122  -40.078711  -85.470674  50.178565  6.31503  -11.838458  -17.412704  -2.59882  4.56043  -13.038776  -2.08122  3.348845  
0.0  93.25843  0.0  4.526932  32.660524  -88.70981  2.33101  -7.913011  21.29064  -6.618879  -0.822811  11.717531  6.496689  1.895043  -1.396279  -36.568639  -10.66383  -44.447958  16.34134  16.43167  55.520528  11.679499  3.460931  2.223306  0.886872  0.47665  1.563032  2.454079  1.244746  4.289681  2.45408  1.244746  4.289681  -19.942605  24.121117  9.567712  139.858676  40.902894  -165.673669  -9.808881  4.833969  82.41668  62.344836  -31.114584  -2.745926  3.156497  -12.446007  14.57061  29.951714  66.733705  -19.755072  -31.606891  -40.345093  -86.255032  50.233072  6.363847  -11.61202  -17.501792  -2.359762  4.693991  -13.107302  -1.906271  3.455724  
0.0  93.25843  0.0  4.936365  32.91695  -88.136843  1.42516  -7.019336  21.080236  -6.367522  -1.220806  11.300863  6.574772  2.060173  -1.501123  -37.405437  -10.607427  -45.447954  16.135025  16.427996  55.729305  11.649344  3.387209  2.359747  0.885923  0.498103  1.488969  2.451484  1.30618  4.08806  2.451484  1.30618  4.08806  -20.17647  24.367249  9.239298  139.853659  41.419745  -166.012283  -10.575009  4.418071  82.357662  62.302228  -30.855306  -3.451438  3.389114  -12.660356  14.592841  31.0135  66.09256  -18.63879  -31.446109  -40.035639  -86.754599  50.353063  6.31913  -11.311012  -17.49897  -2.097227  4.780232  -13.107333  -1.711626  3.528113  
0.0  93.25843  0.0  5.224725  32.915327  -87.832948  1.099571  -6.557256  21.601596  -6.206341  -0.979878  10.584232  7.004215  1.672326  -1.738972  -37.80053  -10.409944  -46.217928  15.594366  16.495323  55.89948  11.44411  3.3627  2.408304  0.90757  0.510714  1.432317  2.510312  1.341458  3.934127  2.510311  1.341458  3.934127  -20.334104  24.571093  9.075891  140.576258  42.078745  -165.704693  -10.996715  4.559738  82.155032  62.486401  -30.641242  -4.456616  3.402098  -12.898008  14.822748  32.344373  65.659167  -17.554906  -31.446783  -39.454325  -87.19021  50.4778  6.201632  -10.901335  -17.464726  -1.903498  4.881117  -13.08315  -1.568799  3.609568  
0.0  93.25843  0.0  5.455127  32.958371  -87.625013  0.999014  -6.313246  22.077365  -6.194439  -1.066068  9.587471  7.468671  1.584655  -1.606371  -37.996782  -10.077695  -46.838776  15.001643  16.629922  56.095628  11.366809  3.324517  2.502328  0.91684  0.529835  1.387654  2.535887  1.394868  3.812996  2.535887  1.394868  3.812997  -20.519168  24.577899  9.024644  141.962458  42.77811  -164.846326  -11.465201  5.276377  81.751611  62.555751  -30.543961  -5.182518  3.034881  -12.980298  15.050051  34.0492  65.232725  -16.41503  -31.424209  -38.930403  -87.72723  50.522928  6.049182  -10.467396  -17.425595  -1.848106  4.958638  -13.054111  -1.52911  3.669469  
0.0  93.25843  0.0  5.506237  32.627714  -87.627986  1.471327  -6.304039  22.503843  -5.846127  -1.301099  8.890908  7.723254  1.789602  -1.351951  -37.634847  -9.675402  -47.206402  13.836998  16.636259  56.087169  11.382333  3.603647  2.662203  0.947507  0.536485  1.332631  2.618939  1.413456  3.663507  2.618939  1.413456  3.663507  -20.495545  24.557552  9.2206  143.79272  43.446864  -163.633731  -11.982121  6.432088  81.299904  62.628916  -30.579394  -5.731329  2.520299  -12.898547  15.237845  36.444816  64.633406  -14.766554  -31.091496  -38.645168  -88.510384  50.461477  6.029114  -10.14783  -17.413737  -1.802565  5.039064  -13.045438  -1.49712  3.73119  
0.0  93.25843  0.0  5.491926  32.07929  -87.694517  2.249631  -6.529346  23.078329  -5.63984  -1.426431  8.084972  7.476785  1.885771  -1.371891  -36.855575  -9.199956  -47.398693  12.96867  16.743641  56.147698  11.352724  3.639484  2.732081  1.002313  0.544933  1.286493  2.768219  1.435431  3.538905  2.768219  1.435431  3.538905  -20.536203  24.472726  9.449596  145.768161  44.063631  -162.255071  -12.578221  7.642461  80.879108  62.584473  -30.707887  -6.191004  1.925666  -12.745153  15.160558  39.383567  63.709489  -12.584546  -30.435998  -38.522321  -89.7162  50.270244  5.993238  -10.080828  -17.261793  -1.830373  5.123505  -12.931  -1.519108  3.794165  
0.0  93.25843  0.0  5.405799  31.432792  -87.738446  2.886028  -6.768219  23.612136  -5.603099  -1.47639  7.248141  7.114145  1.946566  -1.470447  -35.911429  -8.833296  -47.501775  12.287881  16.701821  56.207369  11.276108  3.717521  2.784937  0.832623  0.608537  1.157251  2.30484  1.62287  3.184344  2.30484  1.62287  3.184344  -20.359336  23.972988  9.56024  149.164112  44.158534  -160.501351  -13.233768  8.689368  80.587853  62.485514  -30.799894  -6.575442  2.72424  -12.935511  15.297627  42.787113  62.445823  -9.842699  -29.198467  -38.554248  -91.53394  50.098482  6.000625  -10.220992  -16.417995  -1.872349  5.424876  -12.296952  -1.551515  4.021412  
0.0  93.25843  0.0  5.259051  30.903738  -87.584365  3.016316  -6.709631  23.837473  -5.351622  -1.625516  6.524821  7.224383  1.955366  -1.423915  -35.080982  -8.759427  -47.614688  11.810599  16.69029  56.223647  11.187486  3.729308  2.754974  0.841934  0.596925  1.068405  2.327614  1.593847  2.941281  2.327614  1.593847  2.941282  -20.607349  23.943478  9.655498  150.994727  44.757055  -159.221032  -13.984821  9.549034  80.481425  62.450991  -30.877315  -6.861343  2.101085  -12.798232  14.902245  46.484023  60.817165  -6.85979  -27.445752  -38.478818  -93.869524  50.064048  5.984191  -10.467012  -16.159815  -1.845921  5.504177  -12.103374  -1.531442  4.082328  
0.0  93.25843  0.0  4.988145  30.329743  -87.497977  2.88759  -6.414002  23.980675  -4.901007  -1.965939  5.912742  7.471924  1.931761  -1.314624  -34.334732  -8.869992  -47.52099  11.564453  16.659954  56.187854  11.165459  3.72725  2.681551  0.669905  0.618087  0.924869  1.85481  1.663426  2.54543  1.85481  1.663426  2.545431  -19.713042  23.764435  9.995855  152.752721  45.367508  -158.075623  -14.74133  10.260583  80.489485  62.644294  -30.92176  -6.999254  2.547437  -12.986772  14.768365  50.205237  59.102946  -3.315651  -25.057987  -38.404251  -97.047132  50.259066  5.98225  -10.657195  -15.412637  -1.825445  5.746399  -11.542567  -1.515344  4.266597  
0.0  93.25843  0.0  4.65088  29.979322  -87.39918  2.420521  -6.035616  24.126507  -4.018839  -2.426741  5.401873  7.70783  1.845355  -1.202582  -33.932506  -9.135481  -47.312054  11.459417  16.602812  56.071617  11.198624  3.670601  2.608729  0.614531  0.564137  0.827776  1.699118  1.520655  2.277183  1.699118  1.520655  2.277182  -20.109241  23.776198  9.789835  154.431814  46.007867  -156.999988  -15.295173  10.797177  80.709934  63.050016  -30.874967  -7.171883  1.936279  -12.854457  14.38234  53.711402  57.292769  -0.596835  -23.049471  -37.491982  -99.529339  50.658225  5.9657  -10.693464  -15.01876  -1.70691  5.858424  -11.24812  -1.425367  4.35465  
0.0  93.25843  0.0  4.10388  29.434039  -87.543768  0.908321  -5.521876  23.686632  -1.762329  -2.700658  5.761987  7.875359  1.765959  -1.018427  -33.525281  -9.599799  -46.759493  11.531841  16.506221  55.856766  11.281563  3.544633  2.56764  0.535712  0.482071  0.728511  1.478861  1.301342  2.002118  1.478861  1.301342  2.002117  -20.459622  23.792892  9.530557  156.249955  46.635601  -155.913082  -15.681218  10.896954  81.07217  63.376673  -30.756184  -7.414885  1.707924  -12.771031  14.232606  57.268127  55.705622  2.466615  -21.383711  -36.220995  -101.97989  51.191803  5.915137  -10.560866  -14.587855  -1.528632  5.97367  -10.926556  -1.290121  4.446494  
